<?xml version="1.0" encoding="utf-8"?>
<!-- Generator: Adobe Illustrator 23.1.1, SVG Export Plug-In . SVG Version: 6.00 Build 0)  -->
<svg version="1.1" id="图层_1" xmlns="http://www.w3.org/2000/svg" xmlns:xlink="http://www.w3.org/1999/xlink" x="0px" y="0px"
	 viewBox="0 0 315.3 300" style="enable-background:new 0 0 315.3 300;" xml:space="preserve">
<style type="text/css">
	.st0{fill:#F1C40F;}
	.st1{fill:#E67E22;}
	.st2{fill:none;stroke:#000000;stroke-width:10;stroke-linecap:round;stroke-linejoin:round;}
	.st3{fill:#E17055;}
	.st4{fill:#3498DB;}
	.st5{fill:#2980B9;}
</style>
<title>资源 4</title>
<g>
	<path class="st0" d="M305.3,209.4c-2.3,0.9-4.7,1.6-7.1,2.2c-13.9,3.1-25.6-1.4-32.8-5.6c-2.8-1.6-5.5-3.5-7.9-5.7
		c-16.3,9.6-34.6,15.2-53.4,16.4c-54.4-3.9-97.1-41.3-97.1-86.9s42.7-83,97.1-86.9c54.4,3.9,97.1,41.3,97.1,86.9
		c0,18.1-6.7,34.8-18.2,48.7C283.1,178.7,284.7,196.7,305.3,209.4z"/>
	<path class="st1" d="M305.3,209.4c-7.3,3-15.3,3.9-23,2.6c3.3-0.5,6.5-1.4,9.6-2.6c-20.6-12.7-22.3-30.8-22.3-30.8
		c11.4-13.9,18.1-30.7,18.1-48.8c0-46.3-44-84.2-99.7-87c2.2-0.1,4.5-0.2,6.7-0.2c58.8,0,106.4,39.1,106.4,87.2
		c0,18.1-6.7,34.8-18.2,48.7C283.1,178.7,284.7,196.7,305.3,209.4z"/>
	<path class="st2" d="M231.2,47.9c-11.8-3.5-24.1-5.3-36.4-5.2c-58.8,0-106.4,39-106.4,87.2c0,18.1,6.7,34.8,18.2,48.7"/>
	<path class="st2" d="M252,56.3c-3.1-1.6-6.3-3.1-9.6-4.5"/>
	<path class="st2" d="M147.1,207.9c15.2,6.2,31.4,9.3,47.8,9.3c23.5,0,45.1-6.2,62.7-16.8c0,0,20.5,19.8,47.8,9.1
		c-20.7-12.7-22.3-30.8-22.3-30.8c11.5-13.9,18.2-30.7,18.2-48.7c0-25.4-13.3-48.3-34.4-64.2"/>
	<path d="M160.8,126.9c-9,0-9,13.9,0,13.9C169.8,140.8,169.8,126.9,160.8,126.9z"/>
	<path d="M233,126.9c-8.9,0-9,13.9,0,13.9C242,140.8,242,126.9,233,126.9z"/>
	<path d="M210.8,145.3c0.9,0,1.6,0.8,1.6,1.7c0,0.1,0,0.2,0,0.2c-1,6.9-7.5,12.3-15.4,12.3s-14.3-5.3-15.4-12.3
		c-0.2-0.9,0.4-1.8,1.3-1.9c0.1,0,0.1,0,0.2,0H210.8z"/>
	<ellipse class="st3" cx="196.9" cy="155.1" rx="6" ry="2.8"/>
	<path class="st4" d="M149.8,162c0,30.5-30.1,55.1-67.3,55.1c-9.3,0-18.5-1.6-27.2-4.7c-1.1-0.4-2.2-0.8-3.3-1.3
		c-3.2-1.3-6.2-2.9-9.2-4.6c-5.1,4.5-11.5,7.2-18.3,7.7c10.2-8.1,11.1-17.7,11.1-17.7c-7.6-9.2-12-20.2-12-32.2
		c0-30.2,28.4-54.9,64.4-57.3C122.6,109.4,149.8,133.1,149.8,162z"/>
	<path class="st5" d="M88.1,107c-2.5,0.2-4.9,0.4-7.2,0.8c31.1,4.9,54.6,27.2,54.6,54.2c0,28.5-26.3,51.9-60.1,54.8
		c2.4,0.2,4.8,0.3,7.2,0.3c37.1,0,67.3-24.7,67.3-55.1C149.8,133.1,122.6,109.4,88.1,107z"/>
	<path class="st2" d="M45.4,116c11.4-6.1,24.2-9.2,37.1-9.1c37.1,0,67.3,24.7,67.3,55.1s-30.1,55.1-67.3,55.1
		c-13.9,0.1-27.6-3.6-39.7-10.6c0,0-13,12.5-30.2,5.7c13-8.1,14.1-19.4,14.1-19.4c-7.3-8.8-11.5-19.4-11.5-30.8
		c0-7.9,2.1-15.7,5.9-22.6"/>
	<path class="st2" d="M27.8,129.9c2.5-2.9,5.3-5.5,8.3-7.8"/>
	<path d="M58.9,162.1c-5.5,0-5.5,8.6,0,8.6S64.4,162.1,58.9,162.1z"/>
	<path d="M103.5,162.1c-5.5,0-5.5,8.6,0,8.6S109.1,162.1,103.5,162.1z"/>
	<path d="M89.8,173.4c0.6,0,1,0.5,1,1.1c0,0,0,0.1,0,0.1c-0.7,4.3-4.7,7.6-9.5,7.6c-4.8,0-8.9-3.3-9.5-7.6c-0.1-0.6,0.2-1.1,0.8-1.2
		c0.1,0,0.1,0,0.2,0H89.8z"/>
	<ellipse class="st3" cx="81.2" cy="179.5" rx="3.7" ry="1.7"/>
</g>
<g>
	<path class="st1" d="M22.8,282.3c-4.1,0-7.4-3.3-7.4-7.4s3.3-7.4,7.4-7.4c4.1,0,7.4,3.3,7.4,7.4c0,0,0,0,0,0
		C30.2,279,26.9,282.3,22.8,282.3z M22.8,270.9c-2.2,0-4,1.8-4,4s1.8,4,4,4c2.2,0,4-1.8,4-4l0,0C26.8,272.7,25,270.9,22.8,270.9
		C22.8,270.9,22.8,270.9,22.8,270.9z"/>
	<path class="st4" d="M297.4,241.6h-5.8v-5.8c0-1.5-1.2-2.6-2.6-2.6c-1.5,0-2.6,1.2-2.6,2.6v5.8h-5.8c-1.5,0.1-2.6,1.3-2.5,2.8
		c0.1,1.3,1.2,2.4,2.5,2.5h5.8v5.8c0,1.5,1.2,2.6,2.6,2.6c1.5,0,2.6-1.2,2.6-2.6v-5.8h5.8c1.5-0.1,2.6-1.3,2.5-2.8
		C299.8,242.7,298.7,241.6,297.4,241.6z"/>
	<path class="st1" d="M111,243.4h-2.7v-2.7c0-0.7-0.5-1.2-1.2-1.2c-0.7,0-1.2,0.5-1.2,1.2v2.7h-2.7c-0.7,0-1.2,0.5-1.2,1.2
		s0.5,1.2,1.2,1.2h2.7v2.7c0,0.7,0.5,1.2,1.2,1.2c0.7,0,1.2-0.5,1.2-1.2v-2.7h2.7c0.7,0,1.2-0.6,1.2-1.2
		C112.3,243.9,111.7,243.4,111,243.4L111,243.4z"/>
	<path class="st1" d="M165.1,276.9c-6.8,0-6.9,10.6,0,10.6C171.9,287.6,171.9,276.9,165.1,276.9z"/>
	<path class="st0" d="M184.1,241.5c-3.5,0-3.5,5.4,0,5.4C187.6,246.9,187.6,241.5,184.1,241.5z"/>
</g>
<g>
	<path class="st4" d="M300.6,61.8c-4.8,0-8.7-3.9-8.6-8.7c0-4.8,3.9-8.7,8.7-8.6c4.8,0,8.6,3.9,8.6,8.7
		C309.3,57.9,305.4,61.8,300.6,61.8z M300.6,48.5c-2.6,0-4.7,2.1-4.7,4.7c0,2.6,2.1,4.7,4.7,4.7c2.6,0,4.7-2.1,4.7-4.7
		C305.3,50.6,303.2,48.5,300.6,48.5z"/>
	<path class="st4" d="M55.1,61.7h-2.6V59c0-0.7-0.5-1.2-1.2-1.2s-1.2,0.5-1.2,1.2v2.6h-2.6c-0.7,0.1-1.1,0.7-1.1,1.3
		c0.1,0.6,0.5,1,1.1,1.1h2.6v2.6c0,0.7,0.5,1.2,1.2,1.2s1.2-0.5,1.2-1.2v-2.6h2.6c0.7-0.1,1.1-0.7,1.1-1.3
		C56.1,62.2,55.7,61.7,55.1,61.7L55.1,61.7z"/>
	<path class="st0" d="M289,8.5h-4.5V4c0-1.1-0.9-2-2-2c-1.1,0-2,0.9-2,2v4.5H276c-1.1,0.1-2,1-1.9,2.2c0.1,1,0.9,1.8,1.9,1.9h4.5V17
		c0,1.1,0.9,2,2,2c1.1,0,2-0.9,2-2v-4.5h4.5c1.1-0.1,2-1,1.9-2.2C290.8,9.4,290,8.6,289,8.5z"/>
	<path class="st1" d="M9,44.4c-4.4,0-4.4,6.8,0,6.8S13.4,44.4,9,44.4z"/>
	<path class="st0" d="M78,20.7c-0.6,0-1.1-0.5-1.1-1.1v-5.5c0-0.6,0.5-1.1,1.1-1.1c0.6,0,1.1,0.5,1.1,1.1c0,0,0,0,0,0v5.6
		C79.1,20.2,78.6,20.7,78,20.7z"/>
	<path class="st0" d="M75.1,21.9c-0.4,0.4-1.1,0.4-1.5,0L69.7,18c-0.4-0.4-0.4-1.1,0-1.5c0.4-0.4,1.1-0.4,1.5,0l3.9,3.9
		C75.5,20.8,75.5,21.5,75.1,21.9C75.1,21.9,75.1,21.9,75.1,21.9z"/>
	<path class="st0" d="M73.9,24.8c0,0.6-0.5,1.1-1.1,1.1h-5.6c-0.6,0.1-1.1-0.4-1.2-1c-0.1-0.6,0.4-1.1,1-1.2c0.1,0,0.1,0,0.2,0h5.6
		C73.4,23.7,73.9,24.2,73.9,24.8z"/>
	<path class="st0" d="M75.1,27.7c0.4,0.4,0.4,1.1,0,1.5c0,0,0,0,0,0l-3.9,3.9c-0.4,0.4-1.1,0.4-1.5,0c-0.4-0.4-0.4-1.1,0-1.5
		l3.9-3.9C74,27.3,74.7,27.3,75.1,27.7z"/>
	<path class="st0" d="M78,28.9c0.6,0,1.1,0.5,1.1,1.1c0,0,0,0,0,0v5.6c0,0.6-0.5,1.1-1.1,1.1c-0.6,0-1.1-0.5-1.1-1.1c0,0,0,0,0,0V30
		C77,29.4,77.4,28.9,78,28.9z"/>
	<path class="st0" d="M81,27.7c0.4-0.4,1.1-0.4,1.5,0l3.9,3.9c0.4,0.4,0.4,1.1,0,1.5c-0.4,0.4-1.1,0.4-1.5,0c0,0,0,0,0,0L81,29.2
		C80.6,28.8,80.6,28.1,81,27.7C81,27.7,81,27.7,81,27.7z"/>
	<path class="st0" d="M82.1,24.8c0-0.6,0.5-1.1,1.1-1.1c0,0,0,0,0,0h5.6c0.6-0.1,1.1,0.4,1.2,1c0.1,0.6-0.4,1.1-1,1.2
		c-0.1,0-0.1,0-0.2,0h-5.6C82.6,25.9,82.2,25.4,82.1,24.8C82.1,24.8,82.1,24.8,82.1,24.8z"/>
	<path class="st0" d="M81,21.9c-0.4-0.4-0.4-1.1,0-1.5c0,0,0,0,0,0l3.9-3.9c0.4-0.4,1.1-0.4,1.5,0c0,0,0,0,0,0
		c0.4,0.4,0.4,1.1,0,1.5l-3.9,3.9C82.1,22.3,81.4,22.3,81,21.9z"/>
</g>
</svg>
